#!OML:ASF G:\JayActor3\Patient Classification 1\Patient 1\Session 5\male.ASF
:FULLY-SPECIFIED
:DEGREES
464
root 22.4412 16.4245 -4.9799 816.485 99.3353 817.797
lowerback -0.53296 1.3786 11.0256
upperback 2.15506 1.66392 0.663456
thorax 2.85803 1.08306 -5.43019
lowerneck -10.9421 0.20452 2.83493
upperneck 14.2849 -0.241569 0.73122
head 6.13403 0.131881 -0.249387
rclavicle 6.21202e-015 -2.3059e-014
rhumerus -21.432 3.84301 -88.7505
rradius 32.0995
rwrist 0.681162
rhand -18.9187 -5.59829
rfingers 7.12502
rthumb 7.38362 -35.4495
lclavicle 6.21202e-015 -2.3059e-014
lhumerus -39.7737 14.4806 77.4873
lradius 19.8962
lwrist 7.23633
lhand -16.9288 13.964
lfingers 7.12502
lthumb 9.30406 43.7387
rfemur 13.2828 -4.76682 34.8749
rtibia 15.0214
rfoot -20.0694 -4.99936
rtoes 3.72944
lfemur -28.3677 7.21216 -15.2191
ltibia 20.1491
lfoot -14.1127 9.22873
ltoes -17.1594
465
root 22.5975 16.4123 -4.9831 817.402 99.5179 818.556
lowerback -0.648438 1.40776 11.168
upperback 2.10064 1.68771 0.68491
thorax 2.87506 1.09632 -5.48414
lowerneck -10.952 0.217794 2.8517
upperneck 14.2634 -0.229437 0.746354
head 6.12914 0.139372 -0.246318
rclavicle 3.89121e-014 2.34566e-014
rhumerus -21.42 4.11685 -88.9001
rradius 32.4191
rwrist 0.526813
rhand -18.9764 -5.56203
rfingers 7.12502
rthumb 7.32792 -35.4151
lclavicle 3.89121e-014 2.34566e-014
lhumerus -39.8686 14.8093 77.2782
lradius 19.616
lwrist 6.87726
lhand -16.9564 13.993
lfingers 7.12502
lthumb 9.27739 43.7689
rfemur 14.2262 -4.76627 34.9216
rtibia 14.0267
rfoot -19.5743 -4.8642
rtoes 3.07505
lfemur -28.7842 7.49493 -15.3362
ltibia 19.5159
lfoot -14.0963 8.63236
ltoes -17.363
466
root 22.7543 16.3988 -4.98689 818.197 99.6916 819.212
lowerback -0.74075 1.42895 11.3009
upperback 2.04775 1.70394 0.700959
thorax 2.87908 1.10504 -5.53931
lowerneck -10.965 0.229817 2.87133
upperneck 14.2417 -0.219685 0.761732
head 6.12466 0.145874 -0.24384
rclavicle 1.23495e-014 1.59028e-015
rhumerus -21.439 4.36909 -89.0564
rradius 32.7186
rwrist 0.384683
rhand -19.0146 -5.54457
rfingers 7.12502
rthumb 7.29102 -35.399
lclavicle 1.23495e-014 1.59028e-015
lhumerus -39.9585 15.1469 77.0557
lradius 19.3329
lwrist 6.51273
lhand -16.9554 14.0407
lfingers 7.12502
lthumb 9.27833 43.8166
rfemur 15.1434 -4.72973 34.9698
rtibia 13.1183
rfoot -19.0873 -4.76985
rtoes 2.3518
lfemur -29.1576 7.72657 -15.4325
ltibia 19.0762
lfoot -14.1041 8.10221
ltoes -17.5791
467
root 22.9118 16.3838 -4.99122 818.875 99.8514 819.767
lowerback -0.813531 1.44193 11.4187
upperback 1.99873 1.71186 0.711822
thorax 2.8742 1.10901 -5.59226
lowerneck -10.9869 0.239578 2.88799
upperneck 14.2187 -0.213413 0.78002
head 6.12134 0.15071 -0.240245
rclavicle -2.13197e-014 5.96354e-015
rhumerus -21.4836 4.5904 -89.2169
rradius 32.9888
rwrist 0.266011
rhand -19.0419 -5.53569
rfingers 7.12502
rthumb 7.26473 -35.391
lclavicle -2.13197e-014 5.96354e-015
lhumerus -40.0399 15.481 76.8321
lradius 19.0533
lwrist 6.15896
lhand -16.9286 14.097
lfingers 7.12502
lthumb 9.30423 43.8717
rfemur 16.0146 -4.66127 35.0145
rtibia 12.3311
rfoot -18.6219 -4.7009
rtoes 1.59158
lfemur -29.4722 7.94347 -15.5253
ltibia 18.8135
lfoot -14.125 7.63989
ltoes -17.7525
468
root 23.0701 16.3671 -4.99589 819.44 99.9976 820.225
lowerback -0.869479 1.44927 11.5217
upperback 1.95246 1.71465 0.715797
thorax 2.8614 1.10983 -5.64485
lowerneck -11.0019 0.245723 2.90604
upperneck 14.1839 -0.212844 0.803968
head 6.11299 0.153079 -0.235569
rclavicle 6.33626e-015 -9.14409e-015
rhumerus -21.5643 4.77199 -89.3825
rradius 33.2393
rwrist 0.161561
rhand -19.0657 -5.51944
rfingers 7.12502
rthumb 7.24174 -35.3755
lclavicle 6.33626e-015 -9.14409e-015
lhumerus -40.1114 15.8015 76.6079
lradius 18.7769
lwrist 5.81481
lhand -16.8805 14.1453
lfingers 7.12502
lthumb 9.35069 43.9179
rfemur 16.8212 -4.56475 35.0584
rtibia 11.7039
rfoot -18.1932 -4.65081
rtoes 0.803145
lfemur -29.7088 8.13234 -15.6051
ltibia 18.706
lfoot -14.1272 7.28028
ltoes -17.8222
469
root 23.2298 16.3489 -5.00077 819.941 100.132 820.633
lowerback -0.915929 1.45342 11.609
upperback 1.90994 1.71456 0.713401
thorax 2.84623 1.10891 -5.69571
lowerneck -11.0154 0.248006 2.92421
upperneck 14.1448 -0.218325 0.833617
head 6.10302 0.152899 -0.229617
rclavicle -7.92654e-015 1.19271e-015
rhumerus -21.6823 4.91656 -89.5545
rradius 33.4656
rwrist 0.0752326
rhand -19.0792 -5.50201
rfingers 7.12502
rthumb 7.22866 -35.3585
lclavicle -7.92654e-015 1.19271e-015
lhumerus -40.1749 16.1074 76.3809
lradius 18.5061
lwrist 5.48043
lhand -16.8245 14.1482
lfingers 7.12502
lthumb 9.40464 43.9184
rfemur 17.5459 -4.44644 35.0991
rtibia 11.2705
rfoot -17.8078 -4.60193
rtoes -0.0136141
lfemur -29.8498 8.24543 -15.6445
ltibia 18.7362
lfoot -14.0831 7.06621
ltoes -17.7374
470
root 23.3914 16.3298 -5.00594 820.425 100.246 821.044
lowerback -0.957933 1.45637 11.6716
upperback 1.87383 1.71354 0.70309
thorax 2.83446 1.10747 -5.7412
lowerneck -11.0276 0.246604 2.94202
upperneck 14.0987 -0.22928 0.867206
head 6.09058 0.150211 -0.222823
rclavicle -4.17448e-015 -1.23246e-014
rhumerus -21.8338 5.02709 -89.7308
rradius 33.6657
rwrist 0.00405853
rhand -19.086 -5.47639
rfingers 7.12502
rthumb 7.2221 -35.3332
lclavicle -4.17448e-015 -1.23246e-014
lhumerus -40.228 16.4057 76.1511
lradius 18.2414
lwrist 5.14372
lhand -16.7775 14.0958
lfingers 7.12502
lthumb 9.45001 43.864
rfemur 18.1784 -4.31488 35.1187
rtibia 11.0544
rfoot -17.4683 -4.52367
rtoes -0.790518
lfemur -29.8835 8.24735 -15.6342
ltibia 18.8907
lfoot -13.9998 7.00942
ltoes -17.4219
471
root 23.5553 16.3097 -5.01132 820.92 100.351 821.48
lowerback -1.00157 1.4616 11.7192
upperback 1.84422 1.71518 0.68817
thorax 2.83057 1.10775 -5.78292
lowerneck -11.0374 0.241482 2.95638
upperneck 14.0466 -0.245521 0.907275
head 6.07577 0.145164 -0.21386
rclavicle 0 -2.74323e-014
rhumerus -22.0198 5.10819 -89.9091
rradius 33.8393
rwrist -0.0542351
rhand -19.0857 -5.4546
rfingers 7.12502
rthumb 7.22239 -35.3113
lclavicle 0 -2.74323e-014
lhumerus -40.2709 16.6985 75.9171
lradius 17.9842
lwrist 4.79427
lhand -16.7011 14.029
lfingers 7.12502
lthumb 9.52379 43.7938
rfemur 18.714 -4.17566 35.125
rtibia 11.0625
rfoot -17.1732 -4.40382
rtoes -1.51844
lfemur -29.8183 8.1379 -15.56
ltibia 19.1646
lfoot -13.8685 7.0988
ltoes -16.9888
472
root 23.7222 16.2891 -5.01709 821.482 100.452 821.998
lowerback -1.05159 1.47288 11.7546
upperback 1.81851 1.72391 0.669379
thorax 2.83543 1.11193 -5.82132
lowerneck -11.0513 0.232398 2.96881
upperneck 14.005 -0.267224 0.949309
head 6.06494 0.137751 -0.204408
rclavicle -2.01021e-014 -9.54166e-015
rhumerus -22.2431 5.16043 -90.0883
rradius 33.9799
rwrist -0.0965613
rhand -19.0731 -5.43314
rfingers 7.12502
rthumb 7.23456 -35.2895
lclavicle -2.01021e-014 -9.54166e-015
lhumerus -40.3089 16.9858 75.6782
lradius 17.7352
lwrist 4.42504
lhand -16.5892 13.9648
lfingers 7.12502
lthumb 9.63171 43.7247
rfemur 19.1635 -4.04037 35.1088
rtibia 11.276
rfoot -16.9015 -4.2307
rtoes -2.20272
lfemur -29.6699 7.96509 -15.4367
ltibia 19.5606
lfoot -13.7254 7.26121
ltoes -16.5782
473
root 23.8921 16.2681 -5.02334 822.113 100.555 822.595
lowerback -1.11575 1.49159 11.787
upperback 1.79556 1.74041 0.648438
thorax 2.85269 1.12071 -5.85955
lowerneck -11.0643 0.221271 2.97767
upperneck 13.9702 -0.291736 0.996394
head 6.05614 0.129351 -0.193003
rclavicle 3.3048e-015 1.43125e-014
rhumerus -22.5032 5.18126 -90.2666
rradius 34.0904
rwrist -0.116591
rhand -19.0483 -5.41414
rfingers 7.12502
rthumb 7.25857 -35.2696
lclavicle 3.3048e-015 1.43125e-014
lhumerus -40.343 17.2685 75.4357
lradius 17.5008
lwrist 4.04186
lhand -16.4519 13.9131
lfingers 7.12502
lthumb 9.76418 43.6667
rfemur 19.5476 -3.91402 35.0737
rtibia 11.6432
rfoot -16.6209 -4.01073
rtoes -2.8487
lfemur -29.4744 7.80094 -15.2926
ltibia 20.0888
lfoot -13.5754 7.43198
ltoes -16.3076
474
root 24.0656 16.2476 -5.03014 822.847 100.677 823.303
lowerback -1.19772 1.52003 11.832
upperback 1.77375 1.76694 0.629266
thorax 2.88364 1.13553 -5.90193
lowerneck -11.0788 0.210951 2.98606
upperneck 13.9513 -0.315244 1.04465
head 6.05264 0.121873 -0.181052
rclavicle -1.48095e-014 -2.06736e-014
rhumerus -22.7959 5.18372 -90.4434
rradius 34.1648
rwrist -0.118769
rhand -19.0029 -5.40587
rfingers 7.12502
rthumb 7.30235 -35.2599
lclavicle -1.48095e-014 -2.06736e-014
lhumerus -40.3774 17.5474 75.1907
lradius 17.284
lwrist 3.65715
lhand -16.3049 13.8793
lfingers 7.12502
lthumb 9.90599 43.6263
rfemur 19.8966 -3.80074 35.0266
rtibia 12.104
rfoot -16.2889 -3.75463
rtoes -3.49736
lfemur -29.2576 7.70354 -15.1386
ltibia 20.7479
lfoot -13.3793 7.60795
ltoes -16.2421
